<svg xmlns="http://www.w3.org/2000/svg" viewBox="0 0 734.12 706.17"><defs><style>.cls-1{fill:#61bcd0;}.cls-2{fill:#f8aa57;}.cls-3{fill:none;stroke:#000;stroke-miterlimit:10;stroke-width:12px;}</style></defs><title>Artboard 2 copy 4</title><g id="Layer_3" data-name="Layer 3"><path class="cls-1" d="M703.67,118.43a11.25,11.25,0,0,1-7.38,10.62l-129.9,46.5a29,29,0,0,1-19.5,0L459.31,144.2a48.7,48.7,0,0,0-11.45,21.61,14.46,14.46,0,0,1,5.84,11.43,15.09,15.09,0,0,1-5.49,11.2l11.41,68.46a7.35,7.35,0,0,1-7.25,8.57H425.62a7.36,7.36,0,0,1-7.25-8.57l11.4-68.46a14.49,14.49,0,0,1-5.48-11.2,14.71,14.71,0,0,1,9-13.53,63.58,63.58,0,0,1,11.28-24.79L417,129a11.32,11.32,0,0,1,0-21.23L546.5,61.31a28.89,28.89,0,0,1,19.5,0l129.9,46.5A11.08,11.08,0,0,1,703.67,118.43Zm-65.61,47.06,6.79,65.67c0,19-39.93,34.31-88.22,34.31-49.12,0-88.22-15.35-88.22-34.33l6.8-65.61,66.72,23.86a43.36,43.36,0,0,0,14.7,2.56,39.47,39.47,0,0,0,14.29-2.58Z"/><path class="cls-2" d="M135,485.86c5.58,1.39,11.5,2.79,17.56,2.79a56.71,56.71,0,0,0,47.54-25.79l8.76-13.41a15.4,15.4,0,1,1,25.79,16.82L226,479.65a87.66,87.66,0,0,1-35,30.94V634.92a15.4,15.4,0,1,1-30.8,0V588.73H144.79v46.19a15.4,15.4,0,1,1-30.8,0V510.49A85.6,85.6,0,0,1,79.76,480l-9.38-13.61A15.4,15.4,0,0,1,96,449.31l9.39,14.07a56.87,56.87,0,0,0,28.28,22A6.1,6.1,0,0,1,135,485.86Zm48.26-51.11A30.8,30.8,0,1,1,152.48,404,30.81,30.81,0,0,1,183.28,434.75Z"/><path d="M153.67,273.4,72.1,61.53V254l26.28,11v5.75H39.79v-5.75l25.74-11V61.53L40.34,57.7v-6h60.5l68.7,175.74L239.62,51.68h55.29v6l-25.18,3.83V260.81l25.18,4.11v5.75H214.44v-5.75l25.18-4.11V69.75l-81,203.65Z"/><path d="M498.78,669.91v-6.48l28.41-4.64V430.58h-51l-23.47,61.14h-9V422.86h201v68.86h-9.26l-23.16-61.14H561.16V658.79l28.41,4.64v6.48Z"/><line class="cls-3" x1="10.96" y1="354.77" x2="724.39" y2="354.77"/><line class="cls-3" x1="348.78" y1="12.82" x2="348.78" y2="694.39"/></g></svg>