<svg xmlns="http://www.w3.org/2000/svg" viewBox="0 0 1421.95 1251.8"><defs><style>.cls-1{fill:#fff;}</style></defs><title>Artboard 2 copy 7</title><g id="Layer_3" data-name="Layer 3"><path class="cls-1" d="M298.66,342.66l-98-254.54V319.31l31.57,13.15v6.91H161.85v-6.91l30.91-13.15V88.12l-30.25-4.61V76.28h72.68l82.54,211.13,84.2-211.13h66.42v7.23L438.1,88.12V327.53l30.25,4.93v6.91H371.67v-6.91l30.26-4.93V98L304.58,342.66Z"/><path class="cls-1" d="M510.12,331.64q-13.49-11-13.48-32.72,0-30.92,26-43.9t60.18-13h22V216.7q0-17.08-3.79-26.47t-11.67-13.16q-7.9-3.76-21.38-3.78-15.46,0-23,6.09t-7.56,16.28q0,9.54,9.21,12.49a19.88,19.88,0,0,1-6.25,14.47,20.24,20.24,0,0,1-14.8,6.25q-9.23,0-14.8-5.1t-5.59-15.62q0-19.07,19.07-30.58t47.68-11.51q65.77,0,65.78,57.22v94.06q0,7.23,3.12,11t9,3.79a11.18,11.18,0,0,0,8.88-3.79q3.29-3.78,3.28-10.36H669q0,11.52-7.4,18.09T641,342.66q-15.13,0-25.49-8.72t-10.68-27.13a59.08,59.08,0,0,1-24.18,26.31,69.92,69.92,0,0,1-36,9.54Q523.61,342.66,510.12,331.64ZM581,322.93a46.09,46.09,0,0,0,16-15.3q6.57-10,7.9-24.17v-34.2h-22q-27,0-40.29,12T529.19,295q0,18.09,8.55,25.65t25,7.57Q571.62,328.19,581,322.93Z"/><path class="cls-1" d="M677.18,339.37v-6.58l23-3.29V179.21l-23-3.29v-6.57h55.9V329.5l23,3.29v6.58Zm19.07-214.91a21,21,0,0,1-6.58-15.63,20.74,20.74,0,0,1,6.42-15.45A22,22,0,0,1,712,87.13a20.64,20.64,0,0,1,15.13,6.25,21,21,0,0,1,6.24,15.45,21.57,21.57,0,0,1-6.24,15.63A20.37,20.37,0,0,1,712,130.87,21.84,21.84,0,0,1,696.25,124.46Z"/><path class="cls-1" d="M467.84,689.11v-6.9l30.26-4.94v-243H443.84l-25,65.12H409.3V426H623.4v73.34h-9.87l-24.66-65.12H534.28v243l30.25,4.94v6.9Z"/><path class="cls-1" d="M640.5,689.11v-6.57l23-3.29V529l-23-3.29v-6.58h55.91V679.25l23,3.29v6.57ZM659.57,474.2A21,21,0,0,1,653,458.58a20.71,20.71,0,0,1,6.41-15.46,22,22,0,0,1,16-6.25,20.64,20.64,0,0,1,15.13,6.25,21,21,0,0,1,6.25,15.46,21.56,21.56,0,0,1-6.25,15.62,20.37,20.37,0,0,1-15.13,6.41A21.84,21.84,0,0,1,659.57,474.2Z"/><path class="cls-1" d="M735.21,682.54l23-3.29V528.63l-23-3.29v-6.58h55.91v35.52a98,98,0,0,1,28.61-28.12,65.36,65.36,0,0,1,35.51-10.36q23.68,0,37.33,11.84t13.65,35.19V679.25l23,3.29v6.57H853.6v-6.57l19.73-3.29V563.49q0-17.1-6.9-26.48t-21.38-9.37q-15.13,0-29.11,11a118.33,118.33,0,0,0-24.82,27.13V679.25l19.73,3.29v6.57H735.21Z"/><path class="cls-1" d="M942.06,682.54l23-3.29V435.89l-23-3.29V426H998V554.28a98.13,98.13,0,0,1,28.61-28.12,65.37,65.37,0,0,1,35.52-10.36q23.67,0,37.33,11.84t13.65,35.19V679.25l23,3.29v6.57h-75.63v-6.57l19.72-3.29V563.49q0-17.1-6.9-26.48t-21.38-9.37q-15.12,0-29.1,11A118.36,118.36,0,0,0,998,565.79V679.25l19.73,3.29v6.57H942.06Z"/><path class="cls-1" d="M1078.21,190.91a8.76,8.76,0,0,1-5.73,8.25L971.6,235.27a22.49,22.49,0,0,1-15.14,0l-68-24.35a38,38,0,0,0-8.9,16.78,11.2,11.2,0,0,1,4.54,8.88,11.73,11.73,0,0,1-4.26,8.7l8.86,53.17a5.71,5.71,0,0,1-5.63,6.65H862.27a5.72,5.72,0,0,1-5.63-6.65l8.86-53.17a11.25,11.25,0,0,1-4.25-8.7,11.41,11.41,0,0,1,7-10.5A49.36,49.36,0,0,1,877,206.82l-21.42-7.67a8.8,8.8,0,0,1,0-16.48l100.6-36.12a22.52,22.52,0,0,1,15.15,0l100.87,36.12A8.6,8.6,0,0,1,1078.21,190.91Zm-51,36.55,5.28,51c0,14.73-31,26.65-68.51,26.65-38.15,0-68.52-11.92-68.52-26.66l5.28-51L952.6,246A33.67,33.67,0,0,0,964,248a30.39,30.39,0,0,0,11.09-2Z"/><path class="cls-1" d="M222.38,509.39c5.49,1.37,11.32,2.75,17.28,2.75a55.78,55.78,0,0,0,46.76-25.37L295,473.58a15.15,15.15,0,1,1,25.37,16.55l-8.57,13.16a86.19,86.19,0,0,1-34.41,30.43V656a15.15,15.15,0,1,1-30.29,0V610.59H232V656a15.15,15.15,0,1,1-30.29,0V533.63a84.15,84.15,0,0,1-33.67-30l-9.23-13.39A15.15,15.15,0,1,1,184,473.44l9.24,13.85A56,56,0,0,0,221.06,509,5.81,5.81,0,0,1,222.38,509.39Zm47.48-50.27a30.3,30.3,0,1,1-30.3-30.29A30.31,30.31,0,0,1,269.86,459.12Z"/><path class="cls-1" d="M-.74,975.36v-3.84l16.81-2.74v-133L-.74,833.21v-4h110V871h-4.94L90.24,833.76H36.16v65.77H59.92L70.7,873h4.75v57.74H70.7l-11-26.86H36.16V971H93.53l15-40.19h4.75v44.58Z"/><path class="cls-1" d="M139.57,971.06q-7.48-6.12-7.49-18.18,0-17.16,14.44-24.39T180,921.28h12.24V907.21q0-9.51-2.1-14.71a13.1,13.1,0,0,0-6.49-7.31q-4.38-2.1-11.87-2.1-8.59,0-12.79,3.38a11,11,0,0,0-4.2,9,6.7,6.7,0,0,0,5.11,7,11.07,11.07,0,0,1-3.47,8,11.24,11.24,0,0,1-8.22,3.47,11.71,11.71,0,0,1-8.22-2.83q-3.1-2.83-3.11-8.68,0-10.61,10.6-17t26.49-6.4q36.54,0,36.54,31.79v52.25a9.41,9.41,0,0,0,1.74,6.13,6.94,6.94,0,0,0,10,0,8.47,8.47,0,0,0,1.83-5.76h3.84c0,4.27-1.37,7.61-4.11,10s-6.55,3.65-11.42,3.65a21.23,21.23,0,0,1-14.16-4.84q-5.76-4.83-5.94-15.07a32.76,32.76,0,0,1-13.43,14.61,38.88,38.88,0,0,1-20,5.3Q147.06,977.18,139.57,971.06ZM179,966.22a25.6,25.6,0,0,0,8.86-8.5,29.06,29.06,0,0,0,4.38-13.42v-19H180q-15,0-22.38,6.67t-7.4,18.73q0,10,4.75,14.25t13.89,4.2A20.7,20.7,0,0,0,179,966.22Z"/><path class="cls-1" d="M232.2,971.7,245,969.87V886.2l-12.79-1.83v-3.66h31.06v14.07q11.5-15.71,25.94-15.71a21.5,21.5,0,0,1,12.25,3.56,11.51,11.51,0,0,1,5.29,10.14,10.79,10.79,0,0,1-11.32,11.15,11.61,11.61,0,0,1-9.51-4.57,8.69,8.69,0,0,0,2-5.48,6.46,6.46,0,0,0-2.1-5,7.94,7.94,0,0,0-5.57-1.92q-3.84,0-7.85,3.56a61,61,0,0,0-9.14,11v68.33l14.62,1.83v3.66H232.2Z"/><path class="cls-1" d="M311.67,975.36V971.7l13.71-1.83V834.67l-13.71-1.82v-3.66h32V969.87l12.79,1.83v3.66Z"/><path class="cls-1" d="M366.48,1024a15.6,15.6,0,0,1-5.84-12.79,12.38,12.38,0,0,1,3.19-8.86,10.5,10.5,0,0,1,7.95-3.38,13,13,0,0,1,6.22,1.47,10.86,10.86,0,0,1,4.38,4.38,13.62,13.62,0,0,0-2.74,8,8.11,8.11,0,0,0,8.4,8.4,10.87,10.87,0,0,0,7.59-2.92q3.18-2.92,5.75-10.23l11-31.43L370,886.38l-12.25-1.83V880.9h45.5v3.65l-12.79,2.19L420.93,952l21.74-62.85L427,884.55V880.9h32.89v3.65l-12.43,4.57L406.5,1008.06q-3.84,10.79-9.23,15.71t-15.44,4.93Q372.34,1028.7,366.48,1024Z"/><path class="cls-1" d="M542.79,969.33a63.33,63.33,0,0,1-23.11-27q-8.13-17.35-8.13-40t8.31-40.1a63.2,63.2,0,0,1,23.57-27q15.26-9.58,35.17-9.59a49.78,49.78,0,0,1,16,2.74,51.94,51.94,0,0,1,14.7,7.67l12.25-10.41h3.83v45.31h-3.83l-11.33-28.32a49.91,49.91,0,0,0-14.89-9.32,44.1,44.1,0,0,0-16.72-3.47A39.39,39.39,0,0,0,556,836.32q-9.78,6.57-15.26,19.18t-5.48,30V918.9q0,17.36,5.3,30t14.8,19.28a37.76,37.76,0,0,0,22.29,6.67,45.82,45.82,0,0,0,18.63-4.11,44.61,44.61,0,0,0,15.53-11.06l10.6-29.41h3.84v46.95h-3.84l-13.16-9.32a49.52,49.52,0,0,1-15,8.23A50.56,50.56,0,0,1,577.69,979Q557.77,979,542.79,969.33Z"/><path class="cls-1" d="M641.63,971.7l12.79-1.83V834.67l-12.79-1.82v-3.66h31.06v71.26a54.37,54.37,0,0,1,15.9-15.62,36.29,36.29,0,0,1,19.73-5.76q13.15,0,20.73,6.58t7.59,19.55v64.67l12.79,1.83v3.66h-42V971.7l11-1.83V905.56q0-9.49-3.84-14.7t-11.88-5.21q-8.4,0-16.16,6.12a65.65,65.65,0,0,0-13.8,15.07v63l11,1.83v3.66h-42Z"/><path class="cls-1" d="M757.83,975.36V971.7l12.79-1.83V886.38l-12.79-1.83V880.9h31.06v89l12.79,1.83v3.66ZM768.43,856a11.66,11.66,0,0,1-3.66-8.68,11.52,11.52,0,0,1,3.57-8.59,12.19,12.19,0,0,1,8.86-3.47,11.44,11.44,0,0,1,8.4,3.47,11.7,11.7,0,0,1,3.47,8.59A12,12,0,0,1,785.6,856a11.3,11.3,0,0,1-8.4,3.56A12.12,12.12,0,0,1,768.43,856Z"/><path class="cls-1" d="M809.17,975.36V971.7l13.7-1.83V834.67l-13.7-1.82v-3.66h32V969.87l12.79,1.83v3.66Z"/><path class="cls-1" d="M886.45,971.06a41.27,41.27,0,0,1-15.35-17.17q-5.48-11.05-5.48-25.85t5.48-25.86a40.67,40.67,0,0,1,15.35-17.08,42.92,42.92,0,0,1,22.84-6,31.11,31.11,0,0,1,18.45,5.57,38.17,38.17,0,0,1,12.42,15.26V834.67l-12.78-1.82v-3.66h31V969.87l12.79,1.83v3.66H940.16v-19a38.1,38.1,0,0,1-12.42,15.26,31,31,0,0,1-18.45,5.57A42.44,42.44,0,0,1,886.45,971.06Zm39.19-3.1a33.76,33.76,0,0,0,10.41-12.43,38.59,38.59,0,0,0,4.11-16.9v-21a38.62,38.62,0,0,0-4.11-16.9,33.73,33.73,0,0,0-10.41-12.42,24.3,24.3,0,0,0-14.52-4.66q-25.41,0-25.4,35.26v18.27q0,35.45,25.4,35.45A24.36,24.36,0,0,0,925.64,968Z"/><path class="cls-1" d="M978.9,971.7l12.79-1.83V834.67l-12.79-1.82v-3.66H1010v71.26a54.34,54.34,0,0,1,15.89-15.62,36.32,36.32,0,0,1,19.73-5.76q13.15,0,20.74,6.58t7.58,19.55v64.67l12.79,1.83v3.66h-42V971.7l11-1.83V905.56q0-9.49-3.83-14.7t-11.88-5.21q-8.4,0-16.17,6.12A65.62,65.62,0,0,0,1010,906.84v63l11,1.83v3.66h-42Z"/><path class="cls-1" d="M1121.22,971.06a44.49,44.49,0,0,1-17.08-17.36,55.24,55.24,0,0,1,0-51.24,44.72,44.72,0,0,1,17.08-17.27,49.86,49.86,0,0,1,47.87,0,44.72,44.72,0,0,1,17.08,17.27,55.17,55.17,0,0,1,0,51.24,44.49,44.49,0,0,1-17.08,17.36,49.86,49.86,0,0,1-47.87,0Zm44.31-7.76q6.85-9.87,6.85-26.13V918.9q0-16.26-6.85-26t-20.37-9.78q-13.53,0-20.37,9.78t-6.86,26v18.27q0,16.26,6.86,26.13t20.37,9.86Q1158.68,973.16,1165.53,963.3Z"/><path class="cls-1" d="M1231.57,971.06a44.49,44.49,0,0,1-17.08-17.36,55.24,55.24,0,0,1,0-51.24,44.72,44.72,0,0,1,17.08-17.27,49.86,49.86,0,0,1,47.87,0,44.72,44.72,0,0,1,17.08,17.27,55.17,55.17,0,0,1,0,51.24,44.49,44.49,0,0,1-17.08,17.36,49.86,49.86,0,0,1-47.87,0Zm44.31-7.76q6.86-9.87,6.85-26.13V918.9q0-16.26-6.85-26t-20.37-9.78q-13.53,0-20.37,9.78t-6.86,26v18.27q0,16.26,6.86,26.13t20.37,9.86Q1269,973.16,1275.88,963.3Z"/><path class="cls-1" d="M1339.37,971.06A41.2,41.2,0,0,1,1324,953.89q-5.48-11.05-5.48-25.85t5.48-25.86a40.6,40.6,0,0,1,15.35-17.08,42.86,42.86,0,0,1,22.83-6,31.12,31.12,0,0,1,18.46,5.57,38.26,38.26,0,0,1,12.42,15.26V834.67l-12.79-1.82v-3.66h31.06V969.87l12.79,1.83v3.66h-31.06v-19a38.19,38.19,0,0,1-12.42,15.26,31,31,0,0,1-18.46,5.57A42.38,42.38,0,0,1,1339.37,971.06Zm39.19-3.1A33.76,33.76,0,0,0,1389,955.53a38.59,38.59,0,0,0,4.11-16.9v-21a38.62,38.62,0,0,0-4.11-16.9,33.73,33.73,0,0,0-10.41-12.42,24.31,24.31,0,0,0-14.53-4.66q-25.4,0-25.4,35.26v18.27q0,35.45,25.4,35.45A24.37,24.37,0,0,0,1378.56,968Z"/><path class="cls-1" d="M156,1223.49v-3.84l16.81-2.74v-133L156,1081.35v-4h53.72v4l-16.81,2.56v133l16.81,2.74v3.84Z"/><path class="cls-1" d="M222,1219.84l12.79-1.83v-83.68L222,1132.5v-3.65H253v19.73A54.47,54.47,0,0,1,268.9,1133a36.31,36.31,0,0,1,19.73-5.75q13.15,0,20.74,6.57t7.58,19.55V1218l12.79,1.83v3.65h-42v-3.65l11-1.83V1153.7q0-9.5-3.84-14.71T283,1133.78q-8.4,0-16.17,6.12A65.88,65.88,0,0,0,253,1155v63l11,1.83v3.65H222Z"/><path class="cls-1" d="M356.51,1219.29q-7.23-6-7.22-19.19v-65.77l-13-1.83v-3.65h13v-15.16l18.27-4.57v19.73h23.75v3.65l-23.75,1.83v65.41q0,19.37,13.88,19.37a17,17,0,0,0,5.58-.92,24.17,24.17,0,0,0,4.2-1.82,13.15,13.15,0,0,0,1.92-1.28l2.37,2.92a28.69,28.69,0,0,1-19.73,7.31Q363.72,1225.32,356.51,1219.29Z"/><path class="cls-1" d="M422.55,1219.2a45.08,45.08,0,0,1-17.36-17.27q-6.39-11.15-6.39-25.76t6.3-25.67a45.13,45.13,0,0,1,17-17.17,47.16,47.16,0,0,1,23.85-6.12,41.51,41.51,0,0,1,20.64,5.11,36.6,36.6,0,0,1,14.25,14.16,42.77,42.77,0,0,1,5.3,20.74H418.9v18.09q0,16.07,7.21,26t20.92,10a36.6,36.6,0,0,0,22.29-7.13,29.13,29.13,0,0,0,11.88-18.45h4.2a34.35,34.35,0,0,1-13,21.56q-10.41,8-25.4,8A49.36,49.36,0,0,1,422.55,1219.2ZM466,1162.65q0-15.9-4.93-23.66t-15.35-7.76q-12.24,0-19,8.58t-7.67,22.84Z"/><path class="cls-1" d="M498.37,1219.84l12.79-1.83v-83.68l-12.79-1.83v-3.65h31.06v14.07q11.51-15.72,25.94-15.71a21.42,21.42,0,0,1,12.25,3.56,11.49,11.49,0,0,1,5.29,10.14,10.77,10.77,0,0,1-11.32,11.14,11.63,11.63,0,0,1-9.51-4.56,8.74,8.74,0,0,0,2-5.49,6.48,6.48,0,0,0-2.1-5,7.94,7.94,0,0,0-5.57-1.92q-3.84,0-7.85,3.56a61.13,61.13,0,0,0-9.14,11.06V1218l14.62,1.83v3.65H498.37Z"/><path class="cls-1" d="M622.61,1227.14l-39.1-92.81-11.88-1.83v-3.65h45.49v3.65L604,1134.88l27.59,68.7,24.66-66.33-16.07-4.56V1129h32.7v3.66l-11.51,4.38-33.62,90.07Z"/><path class="cls-1" d="M699,1219.2a45,45,0,0,1-17.36-17.27q-6.39-11.15-6.39-25.76t6.3-25.67a45.13,45.13,0,0,1,17-17.17,47.12,47.12,0,0,1,23.84-6.12,41.52,41.52,0,0,1,20.65,5.11,36.6,36.6,0,0,1,14.25,14.16,42.77,42.77,0,0,1,5.3,20.74H695.32v18.09q0,16.07,7.22,26t20.92,10a36.64,36.64,0,0,0,22.29-7.13,29.16,29.16,0,0,0,11.87-18.45h4.21a34.35,34.35,0,0,1-13,21.56q-10.43,8-25.4,8A49.34,49.34,0,0,1,699,1219.2Zm43.48-56.55q0-15.9-4.93-23.66t-15.35-7.76q-12.24,0-19,8.58t-7.67,22.84Z"/><path class="cls-1" d="M774.8,1219.84l12.79-1.83v-83.68l-12.79-1.83v-3.65h31.06v19.73A54.47,54.47,0,0,1,821.75,1133a36.31,36.31,0,0,1,19.73-5.75q13.15,0,20.74,6.57t7.58,19.55V1218l12.79,1.83v3.65h-42v-3.65l11-1.83V1153.7q0-9.5-3.83-14.71t-11.88-5.21q-8.4,0-16.17,6.12A65.88,65.88,0,0,0,805.86,1155v63l11,1.83v3.65h-42Z"/><path class="cls-1" d="M909.36,1219.29q-7.23-6-7.22-19.19v-65.77l-13-1.83v-3.65h13v-15.16l18.27-4.57v19.73h23.75v3.65l-23.75,1.83v65.41q0,19.37,13.89,19.37a17,17,0,0,0,5.57-.92,24.17,24.17,0,0,0,4.2-1.82,13.15,13.15,0,0,0,1.92-1.28l2.37,2.92a28.68,28.68,0,0,1-19.73,7.31Q916.57,1225.32,909.36,1219.29Z"/><path class="cls-1" d="M954.39,1223.49v-3.65l12.79-1.83v-83.5l-12.79-1.82V1129h31.06v89l12.79,1.83v3.65Zm10.6-119.4a11.63,11.63,0,0,1-3.66-8.68,11.49,11.49,0,0,1,3.57-8.58,12.19,12.19,0,0,1,8.86-3.47,11.44,11.44,0,0,1,8.4,3.47,11.67,11.67,0,0,1,3.47,8.58,12,12,0,0,1-3.47,8.68,11.27,11.27,0,0,1-8.4,3.57A12.09,12.09,0,0,1,965,1104.09Z"/><path class="cls-1" d="M1033.32,1219.2a44.65,44.65,0,0,1-17.09-17.36,55.26,55.26,0,0,1,0-51.25,44.79,44.79,0,0,1,17.09-17.26,49.84,49.84,0,0,1,47.86,0,44.72,44.72,0,0,1,17.09,17.26,55.26,55.26,0,0,1,0,51.25,44.58,44.58,0,0,1-17.09,17.36,49.84,49.84,0,0,1-47.86,0Zm44.3-7.77q6.86-9.87,6.85-26.12V1167q0-16.26-6.85-26t-20.37-9.77q-13.51,0-20.37,9.77t-6.85,26v18.27q0,16.26,6.85,26.12t20.37,9.87Q1070.76,1221.3,1077.62,1211.43Z"/><path class="cls-1" d="M1117.36,1219.84l12.79-1.83v-83.68l-12.79-1.83v-3.65h31.06v19.73a54.47,54.47,0,0,1,15.89-15.62,36.31,36.31,0,0,1,19.73-5.75q13.15,0,20.74,6.57t7.58,19.55V1218l12.79,1.83v3.65h-42v-3.65l11-1.83V1153.7q0-9.5-3.83-14.71t-11.88-5.21q-8.4,0-16.17,6.12a65.88,65.88,0,0,0-13.79,15.08v63l11,1.83v3.65h-42Z"/></g></svg>